Coordinates
version=1
nRows=9
nColumns=36
inDegrees=yes

Units are S.I. units (second, meters, Newtons, ...)
If the header above contains a line with 'inDegrees', this indicates whether rotational values are in degrees (yes) or radians (no).

endheader
time	pelvis_tilt	pelvis_list	pelvis_rotation	pelvis_tx	pelvis_ty	pelvis_tz	hip_flexion_r	hip_adduction_r	hip_rotation_r	knee_angle_r	knee_angle_r_beta	ankle_angle_r	subtalar_angle_r	mtp_angle_r	hip_flexion_l	hip_adduction_l	hip_rotation_l	knee_angle_l	knee_angle_l_beta	ankle_angle_l	subtalar_angle_l	mtp_angle_l	lumbar_extension	lumbar_bending	lumbar_rotation	arm_flex_r	arm_add_r	arm_rot_r	elbow_flex_r	pro_sup_r	arm_flex_l	arm_add_l	arm_rot_l	elbow_flex_l	pro_sup_l
      0.00000000	      6.24160189	     -2.72953646	     -2.84609368	      0.48748010	      0.92364925	      0.69736318	     18.06866305	     -0.87059975	    -10.02340119	     16.53587559	      0.28860547	      7.15468144	    -11.75424940	     -6.92997978	    -12.85109453	     -4.42652196	    -16.97746415	     11.09108902	      0.19357602	      7.21736880	     -2.04065868	     -6.92997978	    -14.09363483	      1.37936937	     -0.97549582	     -0.96329166	     -9.80695137	     -0.22476470	     22.44034772	     76.89778828	     17.42940968	    -12.02426106	     20.89301851	     19.93263470	     72.15148507
      0.01666670	      4.82569989	     -2.50834566	     -3.32014679	      0.48817534	      0.92094924	      0.70108276	     22.17826675	     -0.75245807	     -9.66467325	     19.99103140	      0.34890932	      6.74361775	    -12.29692486	     -6.94607070	    -10.28469931	     -4.41875777	    -18.99729996	     13.85320224	      0.24178399	      9.14698582	     -5.94317198	     -6.94607070	    -12.19820030	      1.39785098	     -0.32655644	     -1.47445543	     -9.03419598	     -1.17779134	     22.13431546	     76.97757911	     16.74611283	    -12.30962410	     21.21688079	     21.13857990	     72.45663996
      0.03333330	      1.83822324	     -3.62177228	     -3.55974926	      0.49098653	      0.91551384	      0.70293203	     26.08317522	      1.03387233	     -7.26704839	     20.60133840	      0.35956119	      5.28666952	    -14.40167946	     -7.02691282	     -6.72137592	     -6.03492664	    -19.34825924	     16.05299276	      0.28017758	     10.83654082	     -6.12099249	     -7.02691282	     -8.21441278	      3.40637262	     -0.61283075	     -2.65786806	     -9.29874129	     -2.05230240	     22.01925522	     75.60588621	     15.11804067	    -12.05170027	     21.23821794	     21.66127994	     71.37848572
      0.05000000	      0.24919723	     -4.59423558	     -3.67280163	      0.49255558	      0.91246881	      0.70447296	     28.26178828	      2.32083504	     -6.69056616	     21.32299466	      0.37215646	      5.01556175	    -14.74438467	     -7.07502232	     -5.08834690	     -7.41275659	    -20.00635971	     17.38516765	      0.30342842	     12.22053231	     -6.09056099	     -7.07502232	     -6.07773834	      4.91248901	     -0.79199673	     -3.36450362	     -9.63440549	     -2.40033294	     21.76894181	     75.16675113	     14.47158066	    -11.59064653	     20.74225692	     21.72455081	     70.79820847
      0.06666670	     -0.03052691	     -5.07439874	     -3.82421715	      0.49220213	      0.91194554	      0.70632302	     28.61725825	      3.06277401	     -6.19745927	     21.54163710	      0.37597249	      4.28532128	    -14.13687820	     -7.07772214	     -5.07827617	     -8.11082766	    -20.45554220	     18.45960749	      0.32218093	     13.07484615	     -6.88434419	     -7.07772214	     -5.63086203	      5.53487287	     -0.83500532	     -3.60339143	     -9.75465827	     -2.47806368	     21.56952718	     75.21445910	     14.45960658	    -11.49760629	     20.58107833	     21.76196021	     70.77062909
      0.08333330	     -1.05095631	     -5.31746843	     -3.74779199	      0.49131599	      0.91138328	      0.70890471	     29.33861756	      3.47472508	     -6.02502367	     21.17989113	      0.36965884	      3.19193449	    -13.46483265	     -7.08788371	     -4.06678656	     -8.73986397	    -20.09358056	     20.13716707	      0.35145987	     13.65710615	     -7.46764521	     -7.08788371	     -4.12838458	      5.97626998	     -0.86992638	     -4.11727358	     -9.76447760	     -2.85038401	     21.00616454	     75.28859290	     14.18397061	    -11.20459183	     19.61491902	     21.86382463	     70.47961611
      0.10000000	     -1.81751862	     -5.21577887	     -3.69687437	      0.49113972	      0.91138039	      0.71282957	     29.62576182	      3.54221839	     -5.89767288	     20.67397936	      0.36082901	      2.16333473	    -12.59828163	     -7.10008902	     -3.21861354	     -8.99439706	    -19.19581198	     22.24141670	      0.38818595	     13.49440790	     -8.63018338	     -7.10008902	     -3.07959012	      5.97360366	     -1.14408827	     -4.26476712	     -9.56270534	     -3.34703474	     20.52842468	     75.28992839	     13.75271791	    -11.14106019	     18.31668119	     22.10126713	     70.04804143
      0.11666670	     -2.63691924	     -5.02512694	     -3.67588632	      0.49305757	      0.91065404	      0.71764439	     29.85217139	      3.55132192	     -5.88681270	     20.16497166	      0.35194515	      1.39888117	    -11.78842328	     -7.12635300	     -2.23018273	     -9.14140088	    -18.02788313	     24.59399068	      0.42924611	     12.86078264	    -10.08550680	     -7.12635300	     -2.02163920	      5.85353941	     -1.67994988	     -4.22759712	     -9.22871733	     -4.16519560	     19.99774535	     75.31699449	     12.75344177	    -11.15638195	     15.95227576	     22.70456617	     69.29688851
      0.13333330	     -3.32291199	     -5.00276691	     -3.61087712	      0.49627631	      0.90958186	      0.72264780	     29.74748124	      3.74477765	     -6.11366037	     19.49817242	      0.34030731	      0.73439403	    -11.25825459	     -7.13565301	     -1.22717450	     -9.53036022	    -17.02508538	     27.24537962	      0.47552158	     12.31772360	    -11.06679224	     -7.13565301	     -1.22893604	      5.92068896	     -1.80922886	     -4.50737567	     -9.12884451	     -4.40540311	     19.82296249	     75.32436537	     12.13077427	    -11.07483006	     15.45033499	     22.82976200	     69.16058791
